<svg version="1.1" xmlns="http://www.w3.org/2000/svg" xmlns:xlink="http://www.w3.org/1999/xlink" width="255.000000pt" height="256.000000pt" viewBox="0,0,255,256"><g fill="#ffffff" fill-rule="nonzero" stroke="none" stroke-width="1" stroke-linecap="butt" stroke-linejoin="miter" stroke-miterlimit="10" stroke-dasharray="" stroke-dashoffset="0" font-family="none" font-weight="none" font-size="none" text-anchor="none" style="mix-blend-mode: normal"><g transform="translate(0,-0.07932)"><g transform="translate(0,256) scale(0.1,-0.1)"><path d="M34,2526l-34,-34v-1212v-1212l34,-34c54,-54 89,-48 178,29c40,34 295,255 567,490l493,428l22,-19c21,-19 901,-778 1044,-900c89,-76 124,-82 178,-28l34,34v1212v1212l-34,34l-34,34h-1207h-1207zM2340,1344c0,-553 -4,-1004 -8,-1002c-5,2 -232,197 -506,433c-512,442 -537,461 -589,438c-14,-6 -248,-205 -521,-442c-273,-237 -498,-431 -501,-431c-3,0 -5,452 -5,1005v1005h1065h1065z"></path></g></g></g></svg>