<svg version="1.1" xmlns="http://www.w3.org/2000/svg" xmlns:xlink="http://www.w3.org/1999/xlink" width="256.000000pt" height="226.000000pt" viewBox="0,0,256,226"><g fill="#ffffff" fill-rule="nonzero" stroke="none" stroke-width="1" stroke-linecap="butt" stroke-linejoin="miter" stroke-miterlimit="10" stroke-dasharray="" stroke-dashoffset="0" font-family="none" font-weight="none" font-size="none" text-anchor="none" style="mix-blend-mode: normal"><g transform="translate(-0.03184,-0.09791)"><g transform="translate(0,226) scale(0.1,-0.1)"><path d="M58,2245c-50,-28 -72,-98 -47,-148c6,-12 202,-211 436,-442l425,-420l144,-579c80,-318 149,-587 155,-598c15,-27 69,-58 102,-58c16,0 41,7 57,16c20,13 186,286 629,1040c485,825 601,1029 601,1058c0,45 -40,93 -88,105c-21,6 -405,15 -877,21c-462,6 -991,13 -1175,16c-293,4 -338,3 -362,-11zM1770,2001l225,-6l-493,-273c-271,-150 -496,-273 -501,-275c-4,-1 -140,128 -302,286l-294,289l570,-7c314,-4 671,-10 795,-14zM2108,1768c-8,-13 -185,-313 -393,-668c-207,-355 -383,-651 -390,-658c-10,-11 -32,64 -109,376c-54,214 -99,397 -99,406c-2,11 137,93 493,291c272,151 499,275 504,275c4,0 2,-10 -6,-22z"></path></g></g></g></svg>